name C:\Users\antoi\Documents\MyRepositories\upper-imu-dc\Results\main_tracking\Case_101\kinematics.mot
datacolumns 43
datarows 5
range 0.70000000 0.78000000
endheader 
time	clav_prot	clav_elev	scapula_abduction	scapula_elevation	scapula_upward_rot	scapula_winging	plane_elv	shoulder_elv	axial_rot	TrapeziusScapula_M/activation	TrapeziusScapula_S/activation	TrapeziusScapula_I/activation	TrapeziusClavicle_S/activation	SerratusAnterior_I/activation	SerratusAnterior_M/activation	SerratusAnterior_S/activation	Rhomboideus_S/activation	Rhomboideus_I/activation	LevatorScapulae/activation	Coracobrachialis/activation	DeltoideusClavicle_A/activation	DeltoideusScapula_P/activation	DeltoideusScapula_M/activation	LatissimusDorsi_S/activation	LatissimusDorsi_M/activation	LatissimusDorsi_I/activation	PectoralisMajorClavicle_S/activation	PectoralisMajorThorax_I/activation	PectoralisMajorThorax_M/activation	TeresMajor/activation	Infraspinatus_I/activation	Infraspinatus_S/activation	PectoralisMinor/activation	TeresMinor/activation	Subscapularis_S/activation	Subscapularis_M/activation	Subscapularis_I/activation	Supraspinatus_P/activation	Supraspinatus_A/activation	TRIlong/activation	BIC_long/activation	BIC_brevis/activation	
          0.70000000	        -21.99505854	          0.23937034	        -11.19160590	         -1.25536315	         15.73820456	          3.48819971	        -10.53199638	          9.42231998	         28.40574575	          0.05952975	          0.07402568	          0.05074580	          0.11004012	          0.09555603	          0.16445089	          0.08545427	          0.09251206	          0.09202538	          0.13591280	          0.08395573	          0.10857764	          0.06289507	          0.13923941	          0.06695227	          0.06153573	          0.08503945	          0.11004358	          0.07568628	          0.10536543	          0.06324879	          0.08137625	          0.09263301	          0.06624316	          0.08369211	          0.09083652	          0.09034563	          0.08922807	          0.09247937	          0.09909252	          0.05078852	          0.10483489	          0.08311226	
          0.72000000	        -22.10652263	         -0.21958228	        -11.29992108	         -1.56978878	         15.59412513	          3.62137359	         -7.46766737	         10.07389554	         25.83855915	          0.09604883	          0.10803300	          0.08456716	          0.16617094	          0.14843200	          0.23506203	          0.13713481	          0.14399475	          0.14216004	          0.20041646	          0.13048074	          0.16091138	          0.11884258	          0.21385652	          0.11159411	          0.10438607	          0.13617631	          0.16186845	          0.12388047	          0.15826162	          0.11236703	          0.12530032	          0.14448130	          0.11368363	          0.13274798	          0.14541988	          0.14655508	          0.14777498	          0.14523786	          0.15204565	          0.09651411	          0.15890886	          0.12616371	
          0.74000000	        -22.20851646	         -0.69394395	        -11.40017932	         -1.90565989	         15.47859400	          3.75676889	         -4.40039827	         10.76448619	         23.27018370	          0.11726870	          0.12653100	          0.10566908	          0.19181133	          0.17911637	          0.26852376	          0.16556059	          0.16921807	          0.16614061	          0.22510935	          0.15504391	          0.18868108	          0.14492125	          0.25140144	          0.13659485	          0.12892603	          0.16276358	          0.18824866	          0.15144955	          0.18626336	          0.13620982	          0.14850744	          0.17122647	          0.14056728	          0.15776799	          0.17317410	          0.17498136	          0.17712693	          0.17234860	          0.17973821	          0.11741315	          0.18698255	          0.15007851	
          0.76000000	        -22.30783214	         -1.18115887	        -11.47634421	         -2.25940199	         15.39380082	          3.89342140	         -1.33394578	         11.49484147	         20.69956316	          0.12938667	          0.13637647	          0.11940704	          0.20308030	          0.19841635	          0.28233429	          0.18081908	          0.18042783	          0.17463638	          0.23168269	          0.16839232	          0.20497496	          0.15437192	          0.26940733	          0.15048997	          0.14284114	          0.17642459	          0.20255728	          0.16787113	          0.20214581	          0.14626021	          0.16119014	          0.18493796	          0.15611178	          0.17041962	          0.18688444	          0.18873454	          0.19081893	          0.18631575	          0.19466072	          0.12535429	          0.20214653	          0.16404411	
          0.78000000	        -22.38949762	         -1.67384759	        -11.50597288	         -2.62406737	         15.33805226	          4.03036352	          1.72765031	         12.26510835	         18.12508952	          0.13674520	          0.14127490	          0.12958731	          0.20778736	          0.21244225	          0.28888107	          0.19033936	          0.18584424	          0.17775659	          0.23128285	          0.17699632	          0.21640909	          0.15630698	          0.27757407	          0.15883282	          0.15120443	          0.18414164	          0.21160892	          0.17881350	          0.21266100	          0.14980311	          0.16918887	          0.19261205	          0.16627975	          0.17763395	          0.19400359	          0.19596297	          0.19769498	          0.19436072	          0.20358960	          0.12681993	          0.21100800	          0.17390268	
